<?xml version="1.0" encoding="utf-8"?>
<!-- Generator: Adobe Illustrator 28.0.0, SVG Export Plug-In . SVG Version: 6.00 Build 0)  -->
<svg version="1.1" id="Calque_1" xmlns="http://www.w3.org/2000/svg" xmlns:xlink="http://www.w3.org/1999/xlink" x="0px" y="0px"
	 viewBox="0 0 76 76" style="enable-background:new 0 0 76 76;" xml:space="preserve">
<style type="text/css">
	.st0{fill:#FFFFFF;}
</style>
<g>
	<path class="st0" d="M52.3,0H23.7C10.6,0,0,10.6,0,23.7v28.7C0,65.4,10.6,76,23.7,76h28.7C65.4,76,76,65.4,76,52.3V23.7
		C76,10.6,65.4,0,52.3,0z M70,52.3C70,62.1,62.1,70,52.3,70H23.7C13.9,70,6,62.1,6,52.3V23.7C6,13.9,13.9,6,23.7,6h28.7
		C62.1,6,70,13.9,70,23.7V52.3z"/>
	<path class="st0" d="M48.1,27.9c-1.2-1.2-3.1-1.2-4.2,0L38,33.8l-5.9-5.9c-1.2-1.2-3.1-1.2-4.2,0c-1.2,1.2-1.2,3.1,0,4.2l5.9,5.9
		l-5.9,5.9c-1.2,1.2-1.2,3.1,0,4.2c0.6,0.6,1.4,0.9,2.1,0.9c0.8,0,1.5-0.3,2.1-0.9l5.9-5.9l5.9,5.9c0.6,0.6,1.4,0.9,2.1,0.9
		s1.5-0.3,2.1-0.9c1.2-1.2,1.2-3.1,0-4.2L42.2,38l5.9-5.9C49.3,30.9,49.3,29,48.1,27.9L48.1,27.9z"/>
</g>
</svg>
