<svg width="19" height="19" viewBox="0 0 19 19" fill="none" xmlns="http://www.w3.org/2000/svg">
<path id="Vector" d="M3.78316 3.81272C3.80449 3.4484 3.79471 3.12229 3.84714 2.80595C4.11642 1.18961 5.39969 0.0397822 7.04732 0.0237876C9.9489 -0.00553569 12.8514 -0.0108672 15.7529 0.0255648C17.5676 0.048668 18.9567 1.44552 18.9753 3.26357C19.0073 6.47581 19.0091 9.68893 18.9753 12.9012C18.9549 14.7539 17.5277 16.1125 15.6596 16.1383C15.3068 16.1427 15.1335 16.1987 15.0278 16.5977C14.6465 18.0292 13.4175 18.972 11.9173 18.9826C9.0451 19.004 6.17196 19.0075 3.29971 18.9826C1.42457 18.9658 0.025772 17.544 0.0133304 15.6656C-0.00444346 12.823 -0.00444346 9.98039 0.0133304 7.1378C0.025772 5.21668 1.44857 3.83315 3.37969 3.81449C3.50855 3.8136 3.63741 3.81449 3.78316 3.81449V3.81272ZM5.73295 3.81272C5.91691 3.81272 6.07687 3.81272 6.23683 3.81272C8.07287 3.81272 9.90891 3.81094 11.7449 3.81272C13.7827 3.81538 15.1833 5.20691 15.186 7.23555C15.1886 9.39659 15.186 11.5585 15.186 13.7196C15.186 13.8777 15.186 14.0359 15.186 14.187C16.4541 14.3478 17.07 13.8164 17.07 12.6053C17.0718 9.58497 17.0718 6.56555 17.07 3.54525C17.07 2.42119 16.5741 1.92891 15.4446 1.92803C12.7501 1.92714 10.0555 1.92714 7.36014 1.92803C6.14352 1.92803 5.61564 2.51716 5.73206 3.81183L5.73295 3.81272Z" fill="#0B7764"/>
</svg>
