<svg width="41" height="41" viewBox="0 0 41 41" fill="none" xmlns="http://www.w3.org/2000/svg">
<path d="M38.6579 18.3116C37.4371 18.3116 36.6233 19.1255 36.6233 20.3463C36.6233 26.2467 33.5713 31.5367 28.4848 34.3852C20.7532 38.8614 10.7835 36.2163 6.30734 28.4848C1.83116 20.7532 4.47618 10.7835 12.2078 6.30734C18.922 2.44155 27.0605 3.86579 32.1471 9.15582H27.264C26.0432 9.15582 25.2294 9.96967 25.2294 11.1904C25.2294 12.4112 26.0432 13.2251 27.264 13.2251H36.4198C37.6406 13.2251 38.4544 12.4112 38.4544 11.1904V2.03463C38.4544 0.81385 37.6406 0 36.4198 0C35.199 0 34.3852 0.81385 34.3852 2.03463V5.69695C30.5194 2.03463 25.6363 0 20.3463 0C9.15582 0 0 9.15582 0 20.3463C0 31.5367 9.15582 40.6925 20.3463 40.6925C31.5367 40.6925 40.6925 31.5367 40.6925 20.3463C40.6925 19.1255 39.8787 18.3116 38.6579 18.3116Z" fill="white"/>
</svg>
