<?xml version="1.0" encoding="utf-8"?>
<!-- Generator: Adobe Illustrator 28.0.0, SVG Export Plug-In . SVG Version: 6.00 Build 0)  -->
<svg version="1.1" id="Calque_1" xmlns="http://www.w3.org/2000/svg" xmlns:xlink="http://www.w3.org/1999/xlink" x="0px" y="0px"
	 viewBox="0 0 2500 2383" style="enable-background:new 0 0 2500 2383;" xml:space="preserve">
<style type="text/css">
	.st0{fill:#764ABC;}
</style>
<path class="st0" d="M1671.6,1598.4c80.6-8.3,141.8-77.9,139-161.3c-2.8-83.4-72.3-150.2-155.7-150.2h-5.6
	c-86.2,2.8-153,75.1-150.2,161.3c2.8,41.7,19.5,77.9,44.5,102.9c-94.6,186.3-239.2,322.6-456.1,436.6
	c-147.4,77.9-300.3,105.7-453.3,86.2c-125.1-16.7-222.5-72.3-283.7-164.1c-89-136.3-97.3-283.7-22.2-431.1
	c52.8-105.7,136.3-183.6,189.1-222.5c-11.1-36.2-27.8-97.3-36.2-141.8c-403.2,292-361.5,686.9-239.2,873.3
	C333.9,2126.8,520.2,2213,726,2213c55.6,0,111.2-5.6,166.9-19.5C1248.8,2124,1518.6,1912.6,1671.6,1598.4L1671.6,1598.4z
	 M2161,1253.5c-211.4-247.5-522.8-383.8-878.8-383.8h-44.5c-25-50.1-77.9-83.4-136.3-83.4h-5.6c-86.2,2.8-152.9,75.1-150.2,161.3
	c2.8,83.4,72.3,150.2,155.7,150.2h5.6c61.2-2.8,114-41.7,136.3-94.6h50.1c211.4,0,411.6,61.2,592.4,180.8
	c139,91.8,239.2,211.4,294.8,356c47.3,116.8,44.5,230.8-5.6,328.2c-77.9,147.4-208.6,228-381,228c-111.2,0-216.9-33.4-272.5-58.4
	c-30.6,27.8-86.2,72.3-125.1,100.1c119.6,55.6,242,86.2,358.8,86.2c267,0,464.4-147.4,539.5-294.8
	C2375.1,1768,2369.6,1489.9,2161,1253.5L2161,1253.5z M748.3,1645.7c2.8,83.4,72.3,150.2,155.7,150.2h5.6
	c86.2-2.8,153-75.1,150.2-161.3c-2.8-83.4-72.3-150.2-155.7-150.2h-5.6c-5.6,0-13.9,0-19.5,2.8c-114-189.1-161.3-394.9-144.6-617.4
	c11.1-166.9,66.7-311.5,164.1-431.1c80.6-102.9,236.4-153,342.1-155.7c294.8-5.6,419.9,361.5,428.3,508.9
	c36.2,8.3,97.3,27.8,139.1,41.7c-33.4-450.5-311.5-684.1-578.4-684.1c-250.3,0-481.1,180.8-572.9,447.8
	c-127.9,356-44.5,698.1,111.2,967.8C753.8,1584.5,745.5,1615.1,748.3,1645.7L748.3,1645.7z"/>
</svg>
