<?xml version="1.0" encoding="utf-8"?>
<!-- Generator: Adobe Illustrator 28.0.0, SVG Export Plug-In . SVG Version: 6.00 Build 0)  -->
<svg version="1.1" id="Calque_1" xmlns="http://www.w3.org/2000/svg" xmlns:xlink="http://www.w3.org/1999/xlink" x="0px" y="0px"
	 viewBox="0 0 48 48" style="enable-background:new 0 0 48 48;" xml:space="preserve">
<style type="text/css">
	.st0{fill:#FFFFFF;}
	.st1{fill-rule:evenodd;clip-rule:evenodd;fill:#FFFFFF;filter:url(#Adobe_OpacityMaskFilter);}
	.st2{mask:url(#mask0_00000017503088333631982370000001585641143796742295_);}
	.st3{fill:#0065A9;}
	.st4{fill:#007ACC;}
	.st5{fill:#1F9CF0;}
	.st6{opacity:0.25;}
	.st7{fill-rule:evenodd;clip-rule:evenodd;fill:url(#SVGID_1_);}
</style>
<path class="st0" d="M12,19h5v17h-5V19z M14.5,17L14.5,17C13,17,12,15.9,12,14.5c0-1.4,1-2.5,2.5-2.5c1.5,0,2.5,1.1,2.5,2.5
	C17,15.9,16,17,14.5,17z M36,36h-5v-9.1c0-2.2-1.2-3.7-3.2-3.7c-1.5,0-2.3,1-2.7,2C25,25.5,25,26.5,25,27v9h-5V19h5v2.6
	c0.7-1.1,1.9-2.6,4.7-2.6c3.6,0,6.3,2.2,6.3,7.3L36,36L36,36z"/>
<defs>
	<filter id="Adobe_OpacityMaskFilter" filterUnits="userSpaceOnUse" x="6.1" y="6" width="35.9" height="35.7">
		<feColorMatrix  type="matrix" values="1 0 0 0 0  0 1 0 0 0  0 0 1 0 0  0 0 0 1 0"/>
	</filter>
</defs>
<mask maskUnits="userSpaceOnUse" x="6.1" y="6" width="35.9" height="35.7" id="mask0_00000017503088333631982370000001585641143796742295_">
	<path class="st1" d="M31.6,41.5c0.6,0.2,1.2,0.2,1.8-0.1l7.4-3.6c0.8-0.4,1.3-1.2,1.3-2V11.8c0-0.9-0.5-1.6-1.3-2l-7.4-3.6
		c-0.7-0.4-1.6-0.3-2.3,0.2c-0.1,0.1-0.2,0.1-0.3,0.2L16.6,19.6l-6.2-4.7c-0.6-0.4-1.4-0.4-1.9,0.1l-2,1.8C6,17.4,6,18.4,6.6,19
		l5.3,4.9l-5.3,4.9c-0.7,0.6-0.6,1.6,0,2.2l2,1.8c0.5,0.5,1.3,0.5,1.9,0.1l6.2-4.7L30.8,41C31,41.3,31.3,41.4,31.6,41.5z M33,15.7
		l-10.7,8.1L33,32V15.7z"/>
</mask>
<g class="st2">
	<path class="st3" d="M40.7,9.8l-7.4-3.6c-0.9-0.4-1.9-0.2-2.6,0.4L6.6,28.7c-0.7,0.6-0.7,1.6,0,2.2l2,1.8c0.5,0.5,1.3,0.5,1.9,0.1
		l29.1-22.1c1-0.7,2.4,0,2.4,1.2v-0.1C42,10.9,41.5,10.2,40.7,9.8z"/>
	<g>
		<path class="st4" d="M40.7,37.9l-7.4,3.6c-0.9,0.4-1.9,0.2-2.6-0.4L6.6,19c-0.7-0.6-0.7-1.6,0-2.2l2-1.8c0.5-0.5,1.3-0.5,1.9-0.1
			L39.6,37c1,0.7,2.4,0,2.4-1.2v0.1C42,36.8,41.5,37.5,40.7,37.9z"/>
	</g>
	<g>
		<path class="st5" d="M33.3,41.5c-0.9,0.4-1.9,0.2-2.6-0.4c0.8,0.8,2.2,0.2,2.2-0.9V7.6c0-1.2-1.4-1.8-2.2-0.9
			c0.7-0.7,1.7-0.8,2.6-0.4l7.4,3.6c0.8,0.4,1.3,1.2,1.3,2v24.1c0,0.9-0.5,1.6-1.3,2L33.3,41.5z"/>
	</g>
	<g class="st6">
		
			<linearGradient id="SVGID_1_" gradientUnits="userSpaceOnUse" x1="24.0348" y1="44" x2="24.0348" y2="8.2982" gradientTransform="matrix(1 0 0 -1 0 50)">
			<stop  offset="0" style="stop-color:#FFFFFF"/>
			<stop  offset="1" style="stop-color:#FFFFFF;stop-opacity:0"/>
		</linearGradient>
		<path class="st7" d="M31.5,41.5c0.6,0.2,1.2,0.2,1.8-0.1l7.4-3.6c0.8-0.4,1.3-1.2,1.3-2V11.8c0-0.9-0.5-1.6-1.3-2l-7.4-3.6
			c-0.7-0.4-1.6-0.3-2.3,0.2c-0.1,0.1-0.2,0.1-0.3,0.2L16.6,19.6l-6.2-4.7c-0.6-0.4-1.4-0.4-1.9,0.1l-2,1.8c-0.7,0.6-0.7,1.6,0,2.2
			l5.3,4.9l-5.3,4.9c-0.7,0.6-0.6,1.6,0,2.2l2,1.8c0.5,0.5,1.3,0.5,1.9,0.1l6.2-4.7L30.8,41C31,41.3,31.3,41.4,31.5,41.5z M33,15.7
			l-10.7,8.1L33,32V15.7z"/>
	</g>
</g>
</svg>
